<svg xmlns="http://www.w3.org/2000/svg" version="1.1" xmlns:xlink="http://www.w3.org/1999/xlink" xmlns:svgjs="http://svgjs.dev/svgjs" width="1500" height="1500" viewBox="0 0 1500 1500"><rect width="1500" height="1500" fill="#ffffff"></rect><g transform="matrix(0.6666666666666666,0,0,0.6666666666666666,249.39393939393938,506.25487284002554)"><svg viewBox="0 0 396 193" data-background-color="#ffffff" preserveAspectRatio="xMidYMid meet" height="731" width="1500" xmlns="http://www.w3.org/2000/svg" xmlns:xlink="http://www.w3.org/1999/xlink"><g id="tight-bounds" transform="matrix(1,0,0,1,0.2400000000000091,0.031072931344212407)"><svg viewBox="0 0 395.52 192.93785413731158" height="192.93785413731158" width="395.52"><g><svg viewBox="0 0 397.4975999999999 193.9025434079981" height="192.93785413731158" width="395.52"><g><rect width="397.4975999999999" height="5.938978805016534" x="0" y="106.5603138019748" fill="#113f67" opacity="1" stroke-width="0" stroke="transparent" fill-opacity="1" class="rect-yte-0" data-fill-palette-color="primary" rx="1%" id="yte-0" data-palette-color="#113f67"></rect></g><g transform="matrix(1,0,0,1,0.9887999999999693,128.0463575415896)"><svg viewBox="0 0 395.52 65.85618586640851" height="65.85618586640851" width="395.52"><g id="textblocktransform"><svg viewBox="0 0 395.52 65.85618586640851" height="65.85618586640851" width="395.52" id="textblock"><g><svg viewBox="0 0 395.52 65.85618586640851" height="65.85618586640851" width="395.52"><g transform="matrix(1,0,0,1,0,0)"><svg width="395.52" viewBox="2.05 -25.35 154.94 25.8" height="65.85618586640851" data-palette-color="#113f67"><path d="M14.3 0.45Q8.65 0.45 5.35-2.8 2.05-6.05 2.05-11.65L2.05-11.65Q2.05-15.6 3.88-18.73 5.7-21.85 8.97-23.6 12.25-25.35 16.4-25.35L16.4-25.35Q17.9-25.35 19.53-25.15 21.15-24.95 22.28-24.7 23.4-24.45 23.7-24.4L23.7-24.4 23.9-24.1Q23.85-23.85 23.65-22.93 23.45-22 23.2-20.5 22.95-19 22.85-17.3L22.85-17.3 20.35-17.15Q20.35-17.3 20.4-17.85 20.45-18.4 20.45-19.1L20.45-19.1Q20.45-22.6 14.85-22.6L14.85-22.6Q10.95-22.6 8.7-20.03 6.45-17.45 6.45-12.95L6.45-12.95Q6.45-7.95 8.83-5 11.2-2.05 15.2-2.05L15.2-2.05Q17.85-2.05 19.43-3.48 21-4.9 21.7-7.95L21.7-7.95 24.2-8.15Q24.05-7.55 23.68-5.45 23.3-3.35 23.15-1.5L23.15-1.5 22.85-1.1Q22.55-1 21.43-0.63 20.3-0.25 18.4 0.1 16.5 0.45 14.3 0.45L14.3 0.45ZM29.7 0.4L30-1.7Q31.6-1.95 32.17-2.63 32.75-3.3 32.75-5L32.75-5 32.8-20.85Q32.8-22.1 32.5-22.53 32.2-22.95 31.3-22.95L31.3-22.95 29.95-22.9 29.8-23.1 30.1-25Q30.35-25 31.6-24.95 32.85-24.9 34.95-24.9L34.95-24.9Q36.05-24.9 37.67-25.05 39.3-25.2 39.8-25.25L39.8-25.25 39.6-23.15Q38.25-23 37.7-22.68 37.15-22.35 37.05-21.85 36.95-21.35 36.8-19.8L36.8-19.8Q36.3-13.1 36.3-4.95L36.3-4.95Q36.3-3.7 36.52-3.13 36.75-2.55 37.42-2.35 38.1-2.15 39.55-2.15L39.55-2.15Q41.95-2.15 43.07-2.55 44.2-2.95 44.77-4.13 45.35-5.3 45.8-7.85L45.8-7.85 48-8.1 48.15-7.8Q48.05-7.15 47.67-4.83 47.3-2.5 47 0.05L47 0.05 46.75 0.35Q45.6 0.3 41.87 0.15 38.15 0 35.6 0L35.6 0Q33.6 0 31.87 0.18 30.15 0.35 29.7 0.4L29.7 0.4ZM62.3 0.45Q58.9 0.45 56.27-1.05 53.65-2.55 52.22-5.3 50.8-8.05 50.8-11.65L50.8-11.65Q50.8-15.55 52.57-18.68 54.35-21.8 57.42-23.58 60.5-25.35 64.3-25.35L64.3-25.35Q67.75-25.35 70.4-23.85 73.05-22.35 74.5-19.63 75.95-16.9 75.95-13.3L75.95-13.3Q75.95-9.4 74.17-6.28 72.4-3.15 69.27-1.35 66.15 0.45 62.3 0.45L62.3 0.45ZM63.5-1.95Q67.15-1.95 69.4-4.58 71.65-7.2 71.65-11.55L71.65-11.55Q71.65-14.85 70.57-17.35 69.5-19.85 67.52-21.2 65.55-22.55 62.95-22.55L62.95-22.55Q59.4-22.55 57.22-19.95 55.05-17.35 55.05-13L55.05-13Q55.05-9.7 56.1-7.2 57.15-4.7 59.07-3.33 61-1.95 63.5-1.95L63.5-1.95ZM82.89 0.2L83.24-1.8Q85.24-1.95 86.07-2.3 86.89-2.65 87.12-3.48 87.34-4.3 87.34-6.35L87.34-6.35 87.34-22.9Q84.19-22.8 83.09-22.55 81.99-22.3 81.47-21.38 80.94-20.45 80.59-17.9L80.59-17.9 78.24-17.75Q78.34-18.4 78.57-20.63 78.79-22.85 78.84-25L78.84-25 79.24-25.35 82.79-24.95 95.54-24.95 99.19-25.35 99.59-25Q99.64-22.8 99.84-20.65 100.04-18.5 100.14-17.9L100.14-17.9 97.84-17.75Q97.44-20.35 96.92-21.33 96.39-22.3 95.37-22.55 94.34-22.8 91.44-22.9L91.44-22.9Q91.19-20.5 90.99-14.93 90.79-9.35 90.79-4.65L90.79-4.65Q90.79-3.2 91.34-2.6 91.89-2 93.14-2L93.14-2Q94.04-2 94.62-2.05 95.19-2.1 95.34-2.1L95.34-2.1 95.49-1.95 95.14 0.15Q94.44 0.15 92.54 0.08 90.64 0 88.84 0L88.84 0Q87.04 0 85.29 0.08 83.54 0.15 82.89 0.2L82.89 0.2ZM103.79 0.45L104.04-1.6Q105.89-1.95 106.54-2.63 107.19-3.3 107.19-4.95L107.19-4.95 107.24-20.85Q107.24-22.1 106.94-22.53 106.64-22.95 105.74-22.95L105.74-22.95 104.39-22.9 104.24-23.1 104.54-25Q105.04-25 106.42-24.95 107.79-24.9 109.19-24.9L109.19-24.9Q110.34-24.9 111.94-25.05 113.54-25.2 114.04-25.25L114.04-25.25 113.84-23.2Q112.64-23 112.14-22.73 111.64-22.45 111.47-21.88 111.29-21.3 111.19-19.9L111.19-19.9 110.94-13.85 117.44-13.8Q120.09-13.8 123.19-14.15L123.19-14.15 123.24-20.85Q123.24-22.1 122.94-22.53 122.64-22.95 121.74-22.95L121.74-22.95 120.34-22.9 120.24-23.1 120.54-25Q120.99-24.95 122.29-24.93 123.59-24.9 124.84-24.9L124.84-24.9Q126.04-24.9 127.77-25.05 129.49-25.2 130.04-25.25L130.04-25.25 129.89-23.2Q128.34-23 127.84-22.58 127.34-22.15 127.29-21L127.29-21Q127.09-17.05 126.92-12.18 126.74-7.3 126.74-4.65L126.74-4.65Q126.74-3.05 127.09-2.53 127.44-2 128.49-2L128.49-2Q129.09-2 129.59-2.05 130.09-2.1 130.24-2.1L130.24-2.1 130.39-1.9 129.99 0.1Q129.44 0.1 127.92 0.05 126.39 0 124.74 0L124.74 0 119.74 0.05 120.14-1.95Q121.44-1.95 122.07-2.27 122.69-2.6 122.94-3.43 123.19-4.25 123.19-5.9L123.19-5.9 123.19-11.5 117.44-11.55Q116.64-11.55 114.19-11.38 111.74-11.2 110.89-11.15L110.89-11.15 110.74-4.65Q110.74-3.05 111.09-2.5 111.44-1.95 112.49-1.95L112.49-1.95Q113.09-1.95 113.59-2 114.09-2.05 114.24-2.1L114.24-2.1 114.34-1.9 113.99 0.1Q113.59 0.1 112.47 0.05 111.34 0 110.09 0L110.09 0Q108.24 0 106.04 0.15 103.84 0.3 103.79 0.45L103.79 0.45ZM139.39 0.45L139.69-1.6Q141.19-1.85 141.89-2.25 142.59-2.65 142.79-3.4 142.99-4.15 142.99-5.65L142.99-5.65 142.99-7.2Q142.99-8.35 142.74-9.25 142.49-10.15 141.79-11.5L141.79-11.5 138.04-18.7Q137.09-20.5 136.59-21.23 136.09-21.95 135.29-22.4 134.49-22.85 132.99-23L132.99-23 132.89-23.2 133.19-25Q133.64-25 135.01-24.95 136.39-24.9 137.89-24.9L137.89-24.9Q139.29-24.9 141.29-25.03 143.29-25.15 143.89-25.2L143.89-25.2 144.04-24.9 143.89-23.25Q142.19-23.15 141.56-22.88 140.94-22.6 140.94-21.9L140.94-21.9Q140.94-21.25 142.71-17.6 144.49-13.95 145.24-12.5L145.24-12.5 145.49-12.5 149.79-20.2Q150.44-21.35 150.44-22.1L150.44-22.1Q150.44-23.05 147.99-23.2L147.99-23.2 147.89-23.35 148.14-25.15Q148.44-25.15 150.14-25.03 151.84-24.9 152.94-24.9L152.94-24.9Q154.24-24.9 155.34-24.95 156.44-25 156.84-25.05L156.84-25.05 156.99-24.75 156.74-23.05Q155.39-22.75 154.64-22.25 153.89-21.75 153.31-20.95 152.74-20.15 151.44-18L151.44-18 147.39-11.1Q146.84-10.05 146.69-8.8 146.54-7.55 146.54-4.3L146.54-4.3Q146.54-3 146.94-2.5 147.34-2 148.39-2L148.39-2Q149.04-2 149.61-2.05 150.19-2.1 150.39-2.1L150.39-2.1 150.49-1.95 150.09 0.15Q149.49 0.1 147.84 0.05 146.19 0 144.49 0L144.49 0Q143.19 0 141.54 0.18 139.89 0.35 139.39 0.45L139.39 0.45Z" opacity="1" transform="matrix(1,0,0,1,0,0)" fill="#113f67" class="wordmark-text-0" data-fill-palette-color="primary" id="text-0"></path></svg></g></svg></g></svg></g></svg></g><g transform="matrix(1,0,0,1,155.56012324321972,0)"><svg viewBox="0 0 86.37735351356045 91.01324886737655" height="91.01324886737655" width="86.37735351356045"><g><svg xmlns="http://www.w3.org/2000/svg" xmlns:xlink="http://www.w3.org/1999/xlink" version="1.1" x="0" y="0" viewBox="7.484972161231376 4.99 83.67892976096715 88.17" enable-background="new 0 0 100 100" xml:space="preserve" height="91.01324886737655" width="86.37735351356045" class="icon-icon-0" data-fill-palette-color="accent" id="icon-0"><path d="M90.861 51.847C87.22 46.486 74.852 28.992 68.579 28.992H62.479C62.06 28.992 61.662 29.15 61.347 29.419L51.56 23.349V20.053C54.929 19.259 57.447 16.235 57.447 12.627 57.447 8.416 54.021 4.99 49.81 4.99S42.173 8.416 42.173 12.627A1.75 1.75 0 0 0 45.673 12.627 4.14 4.14 0 0 1 49.81 8.49C52.091 8.49 53.947 10.346 53.947 12.627S52.092 16.764 49.81 16.764A1.75 1.75 0 0 0 48.06 18.514V23.352L38.732 29.136A1.75 1.75 0 0 0 38.041 28.993H30.244C24.297 28.993 11.564 46.47 7.803 51.826A1.75 1.75 0 0 0 8.129 54.188L22.209 65.667A1.75 1.75 0 0 0 24.671 65.416L25.661 64.202V91.41C25.661 92.377 26.445 93.16 27.411 93.16H71.578A1.75 1.75 0 0 0 73.328 91.41V64.62L73.977 65.417C74.588 66.165 75.691 66.277 76.44 65.667L90.52 54.187A1.75 1.75 0 0 0 90.861 51.847M49.812 26.382L60.521 33.025A7.06 7.06 0 0 1 53.662 38.371H46.828A7.03 7.03 0 0 1 39.897 32.531zM75.586 61.847L72.936 58.598A1.75 1.75 0 0 0 69.83 59.703V89.658H29.162V59.285A1.75 1.75 0 0 0 26.056 58.18L23.066 61.847 11.61 52.508A175 175 0 0 1 18.795 43.16 126 126 0 0 1 21.823 39.62C25.579 35.402 28.792 32.491 30.245 32.491H36.352C36.425 33.174 36.567 33.836 36.765 34.473A10.56 10.56 0 0 0 46.828 41.871H53.662A10.58 10.58 0 0 0 64.17 32.491H68.579C70.006 32.491 72.843 34.947 76.173 38.614A112 112 0 0 1 80.515 43.726 160 160 0 0 1 87.059 52.493z" fill="#87c0cd" data-fill-palette-color="accent"></path></svg></g></svg></g><g></g></svg></g><defs></defs></svg><rect width="395.52" height="192.93785413731158" fill="none" stroke="none" visibility="hidden"></rect></g></svg></g></svg>