<svg width="30" height="30" viewBox="0 0 30 30" fill="none" xmlns="http://www.w3.org/2000/svg">
<path fill-rule="evenodd" clip-rule="evenodd" d="M15.0001 1.5625C13.4253 1.5625 11.9151 2.18806 10.8016 3.30155C9.68813 4.41505 9.06257 5.92528 9.06257 7.5C9.06257 9.07472 9.68813 10.5849 10.8016 11.6984C11.9151 12.8119 13.4253 13.4375 15.0001 13.4375C16.5748 13.4375 18.085 12.8119 19.1985 11.6984C20.312 10.5849 20.9376 9.07472 20.9376 7.5C20.9376 5.92528 20.312 4.41505 19.1985 3.30155C18.085 2.18806 16.5748 1.5625 15.0001 1.5625ZM10.9376 7.5C10.9376 6.42256 11.3656 5.38925 12.1274 4.62738C12.8893 3.86551 13.9226 3.4375 15.0001 3.4375C16.0775 3.4375 17.1108 3.86551 17.8727 4.62738C18.6346 5.38925 19.0626 6.42256 19.0626 7.5C19.0626 8.57744 18.6346 9.61075 17.8727 10.3726C17.1108 11.1345 16.0775 11.5625 15.0001 11.5625C13.9226 11.5625 12.8893 11.1345 12.1274 10.3726C11.3656 9.61075 10.9376 8.57744 10.9376 7.5ZM15.0001 15.3125C12.1088 15.3125 9.44382 15.97 7.47007 17.08C5.52507 18.175 4.06257 19.8325 4.06257 21.875V22.0025C4.06132 23.455 4.06007 25.2775 5.65882 26.58C6.44507 27.22 7.54632 27.6763 9.03382 27.9763C10.5238 28.2788 12.4676 28.4375 15.0001 28.4375C17.5326 28.4375 19.4751 28.2788 20.9676 27.9763C22.4551 27.6763 23.5551 27.22 24.3426 26.58C25.9413 25.2775 25.9388 23.455 25.9376 22.0025V21.875C25.9376 19.8325 24.4751 18.175 22.5313 17.08C20.5563 15.97 17.8926 15.3125 15.0001 15.3125ZM5.93757 21.875C5.93757 20.8112 6.71507 19.6563 8.38882 18.715C10.0338 17.79 12.3688 17.1875 15.0013 17.1875C17.6313 17.1875 19.9663 17.79 21.6113 18.715C23.2863 19.6563 24.0626 20.8112 24.0626 21.875C24.0626 23.51 24.0126 24.43 23.1576 25.125C22.6951 25.5025 21.9201 25.8712 20.5951 26.1387C19.2738 26.4062 17.4676 26.5625 15.0001 26.5625C12.5326 26.5625 10.7251 26.4062 9.40507 26.1387C8.08007 25.8712 7.30507 25.5025 6.84257 25.1262C5.98757 24.43 5.93757 23.51 5.93757 21.875Z" fill="#8E8E8E"/>
</svg>
