<svg width="30" height="30" viewBox="0 0 30 30" fill="none" xmlns="http://www.w3.org/2000/svg">
<path d="M28.5469 17.4375C28.473 17.4929 28.3889 17.5333 28.2995 17.5562C28.2101 17.5791 28.117 17.5842 28.0256 17.5711C27.9342 17.558 27.8462 17.5271 27.7668 17.4801C27.6873 17.433 27.6179 17.3708 27.5625 17.2969C26.9757 16.5081 26.212 15.8682 25.3326 15.4285C24.4533 14.9889 23.4831 14.7618 22.5 14.7657C22.3135 14.7657 22.1347 14.6916 22.0028 14.5597C21.871 14.4279 21.7969 14.249 21.7969 14.0625C21.7969 13.8761 21.871 13.6972 22.0028 13.5654C22.1347 13.4335 22.3135 13.3594 22.5 13.3594C23.0698 13.3593 23.6282 13.1994 24.1117 12.8978C24.5952 12.5963 24.9845 12.1652 25.2353 11.6535C25.4861 11.1418 25.5883 10.57 25.5305 10.0031C25.4726 9.43623 25.2569 8.89693 24.9079 8.44647C24.5589 7.996 24.0906 7.65244 23.5561 7.4548C23.0216 7.25716 22.4425 7.21336 21.8843 7.32839C21.3262 7.44341 20.8116 7.71263 20.3988 8.10549C19.986 8.49834 19.6917 8.99908 19.5492 9.55083C19.5026 9.7314 19.3862 9.88606 19.2255 9.98078C19.0649 10.0755 18.8732 10.1025 18.6926 10.0559C18.512 10.0093 18.3573 9.89284 18.2626 9.73219C18.1679 9.57154 18.1409 9.37984 18.1875 9.19927C18.3642 8.51188 18.7027 7.8767 19.1747 7.34666C19.6467 6.81662 20.2386 6.40708 20.901 6.15217C21.5634 5.89726 22.2771 5.80438 22.9827 5.88125C23.6882 5.95813 24.3652 6.20254 24.9572 6.59411C25.5491 6.98568 26.0389 7.51307 26.3857 8.13232C26.7325 8.75158 26.9262 9.44475 26.9508 10.1541C26.9754 10.8634 26.83 11.5683 26.5269 12.2101C26.2238 12.8518 25.7717 13.4118 25.2082 13.8434C26.5947 14.3608 27.8027 15.2669 28.6875 16.4532C28.7429 16.527 28.7832 16.6111 28.8061 16.7005C28.829 16.79 28.8341 16.8831 28.8211 16.9745C28.808 17.0659 28.7771 17.1538 28.73 17.2333C28.683 17.3127 28.6207 17.3821 28.5469 17.4375ZM22.1707 24.961C22.217 25.0409 22.247 25.1292 22.2592 25.2208C22.2713 25.3123 22.2653 25.4054 22.2415 25.4946C22.2176 25.5839 22.1765 25.6675 22.1203 25.7408C22.0641 25.8142 21.994 25.8757 21.9141 25.9219C21.8075 25.9844 21.6861 26.0172 21.5625 26.0168C21.439 26.0169 21.3177 25.9845 21.2107 25.9228C21.1037 25.861 21.0149 25.7722 20.9531 25.6653C20.3419 24.6298 19.4713 23.7716 18.4271 23.1753C17.3829 22.5791 16.2012 22.2656 14.9988 22.2656C13.7964 22.2656 12.6148 22.5791 11.5706 23.1753C10.5264 23.7716 9.65571 24.6298 9.04453 25.6653C9.00058 25.7493 8.94008 25.8236 8.86667 25.8836C8.79327 25.9437 8.70848 25.9882 8.61741 26.0146C8.52633 26.0411 8.43086 26.0488 8.33672 26.0374C8.24258 26.0259 8.15173 25.9956 8.06963 25.9481C7.98753 25.9007 7.91588 25.8371 7.85898 25.7612C7.80209 25.6853 7.76113 25.5988 7.73857 25.5066C7.71601 25.4145 7.71231 25.3188 7.7277 25.2252C7.74309 25.1317 7.77725 25.0422 7.82813 24.9622C8.78582 23.3167 10.2853 22.0549 12.0703 21.3926C11.0953 20.7595 10.351 19.8282 9.94854 18.7375C9.54609 17.6469 9.50702 16.4553 9.83715 15.3406C10.1673 14.2259 10.8489 13.2478 11.7804 12.5522C12.7119 11.8566 13.8433 11.4808 15.0059 11.4808C16.1684 11.4808 17.2998 11.8566 18.2313 12.5522C19.1628 13.2478 19.8444 14.2259 20.1746 15.3406C20.5047 16.4553 20.4656 17.6469 20.0632 18.7375C19.6607 19.8282 18.9165 20.7595 17.9414 21.3926C19.7214 22.0572 21.216 23.3182 22.1707 24.961ZM15 20.8594C15.788 20.8594 16.5584 20.6257 17.2136 20.1879C17.8688 19.7501 18.3795 19.1278 18.6811 18.3998C18.9827 17.6718 19.0616 16.8706 18.9078 16.0977C18.7541 15.3248 18.3746 14.6149 17.8174 14.0577C17.2602 13.5004 16.5502 13.121 15.7773 12.9672C15.0044 12.8135 14.2033 12.8924 13.4752 13.194C12.7472 13.4955 12.1249 14.0062 11.6871 14.6614C11.2493 15.3167 11.0156 16.087 11.0156 16.875C11.0156 17.9318 11.4354 18.9452 12.1826 19.6924C12.9298 20.4396 13.9433 20.8594 15 20.8594ZM8.20312 14.0625C8.20312 13.8761 8.12905 13.6972 7.99718 13.5654C7.86532 13.4335 7.68648 13.3594 7.5 13.3594C6.93022 13.3592 6.37191 13.1993 5.88847 12.8978C5.40503 12.5962 5.01582 12.1652 4.76505 11.6535C4.51428 11.1419 4.412 10.5702 4.46981 10.0034C4.52762 9.43655 4.74322 8.89729 5.09212 8.44682C5.44101 7.99636 5.90923 7.65276 6.4436 7.45503C6.97796 7.25729 7.55707 7.21336 8.11515 7.32822C8.67323 7.44307 9.18792 7.71211 9.60078 8.10478C10.0136 8.49746 10.3081 8.99803 10.4508 9.54966C10.4739 9.63907 10.5143 9.72306 10.5699 9.79683C10.6254 9.8706 10.6949 9.93271 10.7745 9.97961C10.854 10.0265 10.942 10.0573 11.0335 10.0702C11.1249 10.0831 11.218 10.0778 11.3074 10.0547C11.3968 10.0317 11.4808 9.99118 11.5546 9.93564C11.6284 9.8801 11.6905 9.81057 11.7374 9.73102C11.7843 9.65147 11.8151 9.56347 11.8279 9.47203C11.8408 9.38059 11.8356 9.28751 11.8125 9.19809C11.6358 8.51071 11.2973 7.87552 10.8253 7.34548C10.3533 6.81544 9.76139 6.4059 9.099 6.151C8.43661 5.89609 7.72289 5.80321 7.01732 5.88008C6.31175 5.95696 5.63478 6.20137 5.04283 6.59294C4.45087 6.98451 3.96109 7.5119 3.6143 8.13115C3.26751 8.7504 3.07376 9.44358 3.0492 10.1529C3.02464 10.8622 3.16997 11.5671 3.4731 12.2089C3.77622 12.8506 4.22835 13.4107 4.7918 13.8422C3.40514 14.36 2.19714 15.2665 1.3125 16.4532C1.2571 16.527 1.21679 16.6111 1.19387 16.7005C1.17096 16.79 1.16588 16.8831 1.17894 16.9745C1.192 17.0659 1.22293 17.1538 1.26998 17.2333C1.31702 17.3127 1.37926 17.3821 1.45313 17.4375C1.52699 17.4929 1.61105 17.5333 1.7005 17.5562C1.78994 17.5791 1.88303 17.5842 1.97444 17.5711C2.06584 17.558 2.15379 17.5271 2.23324 17.4801C2.31269 17.433 2.3821 17.3708 2.4375 17.2969C3.02427 16.5081 3.78805 15.8682 4.66735 15.4285C5.54666 14.9889 6.51691 14.7618 7.5 14.7657C7.68648 14.7657 7.86532 14.6916 7.99718 14.5597C8.12905 14.4279 8.20312 14.249 8.20312 14.0625Z" fill="#8E8E8E"/>
</svg>
