<svg width="30" height="30" viewBox="0 0 30 30" fill="none" xmlns="http://www.w3.org/2000/svg">
<path d="M16.25 10V5C16.25 4.64583 16.37 4.34917 16.61 4.11C16.85 3.87083 17.1467 3.75083 17.5 3.75H25C25.3542 3.75 25.6512 3.87 25.8912 4.11C26.1312 4.35 26.2508 4.64667 26.25 5V10C26.25 10.3542 26.13 10.6513 25.89 10.8913C25.65 11.1313 25.3533 11.2508 25 11.25H17.5C17.1458 11.25 16.8492 11.13 16.61 10.89C16.3708 10.65 16.2508 10.3533 16.25 10ZM3.75 15V5C3.75 4.64583 3.87 4.34917 4.11 4.11C4.35 3.87083 4.64667 3.75083 5 3.75H12.5C12.8542 3.75 13.1513 3.87 13.3913 4.11C13.6313 4.35 13.7508 4.64667 13.75 5V15C13.75 15.3542 13.63 15.6513 13.39 15.8913C13.15 16.1313 12.8533 16.2508 12.5 16.25H5C4.64583 16.25 4.34917 16.13 4.11 15.89C3.87083 15.65 3.75083 15.3533 3.75 15ZM16.25 25V15C16.25 14.6458 16.37 14.3492 16.61 14.11C16.85 13.8708 17.1467 13.7508 17.5 13.75H25C25.3542 13.75 25.6512 13.87 25.8912 14.11C26.1312 14.35 26.2508 14.6467 26.25 15V25C26.25 25.3542 26.13 25.6512 25.89 25.8912C25.65 26.1312 25.3533 26.2508 25 26.25H17.5C17.1458 26.25 16.8492 26.13 16.61 25.89C16.3708 25.65 16.2508 25.3533 16.25 25ZM3.75 25V20C3.75 19.6458 3.87 19.3492 4.11 19.11C4.35 18.8708 4.64667 18.7508 5 18.75H12.5C12.8542 18.75 13.1513 18.87 13.3913 19.11C13.6313 19.35 13.7508 19.6467 13.75 20V25C13.75 25.3542 13.63 25.6512 13.39 25.8912C13.15 26.1312 12.8533 26.2508 12.5 26.25H5C4.64583 26.25 4.34917 26.13 4.11 25.89C3.87083 25.65 3.75083 25.3533 3.75 25ZM6.25 13.75H11.25V6.25H6.25V13.75ZM18.75 23.75H23.75V16.25H18.75V23.75ZM18.75 8.75H23.75V6.25H18.75V8.75ZM6.25 23.75H11.25V21.25H6.25V23.75Z" fill="#8E8E8E"/>
</svg>
