<svg width="26" height="26" viewBox="0 0 26 26" fill="none" xmlns="http://www.w3.org/2000/svg">
<path d="M21.8625 16.0512V21.6012C21.8622 22.3864 21.5501 23.1394 20.9948 23.6947C20.4396 24.25 19.6865 24.5621 18.9013 24.5624H4.40002C4.00972 24.5623 3.62329 24.485 3.26294 24.335C2.9026 24.185 2.57544 23.9653 2.30026 23.6885C2.02509 23.4117 1.80732 23.0833 1.65948 22.7221C1.51164 22.3608 1.43663 21.974 1.43877 21.5837V7.09866C1.43645 6.70897 1.51149 6.32269 1.65955 5.96222C1.80761 5.60174 2.02573 5.27424 2.30129 4.99868C2.57685 4.72312 2.90436 4.50499 3.26483 4.35694C3.62531 4.20888 4.01158 4.13384 4.40127 4.13616H9.95002" stroke="#8E8E8E" stroke-width="1.875" stroke-linecap="round" stroke-linejoin="round"/>
<path d="M21.8625 9.24369L16.7562 4.13619M6.5437 17.7537V15.0474C6.5462 14.6012 6.7237 14.1724 7.03745 13.8562L18.9525 1.94119C19.1107 1.78163 19.299 1.65498 19.5065 1.56855C19.7139 1.48212 19.9365 1.43762 20.1612 1.43762C20.3859 1.43762 20.6085 1.48212 20.8159 1.56855C21.0234 1.65498 21.2117 1.78163 21.37 1.94119L24.0587 4.62994C24.2186 4.78804 24.3455 4.97628 24.4321 5.18377C24.5187 5.39125 24.5633 5.61385 24.5633 5.83869C24.5633 6.06353 24.5187 6.28614 24.4321 6.49362C24.3455 6.70111 24.2186 6.88935 24.0587 7.04744L12.1437 18.9624C11.8268 19.277 11.3989 19.4543 10.9525 19.4562H8.2462C7.79467 19.4562 7.36163 19.2768 7.04235 18.9575C6.72307 18.6383 6.5437 18.2052 6.5437 17.7537Z" stroke="#8E8E8E" stroke-width="1.875" stroke-linecap="round" stroke-linejoin="round"/>
</svg>
