<svg width="30" height="30" viewBox="0 0 30 30" fill="none" xmlns="http://www.w3.org/2000/svg">
<path d="M22.4101 24.5426H25.0826C25.3177 24.5462 25.5502 24.493 25.7602 24.3873C25.9702 24.2816 26.1515 24.1266 26.2885 23.9356C26.4256 23.7446 26.5144 23.5232 26.5473 23.2904C26.5803 23.0576 26.5563 22.8203 26.4776 22.5988C25.796 21.1403 24.7172 19.9035 23.3647 19.0301C22.0123 18.1568 20.4411 17.6824 18.8314 17.6613M18.8314 14.2126C19.4329 14.2127 20.0286 14.0944 20.5844 13.8643C21.1402 13.6342 21.6453 13.2969 22.0707 12.8715C22.4961 12.4462 22.8336 11.9413 23.0639 11.3855C23.2941 10.8298 23.4126 10.2341 23.4126 9.63256C23.4143 9.02995 23.297 8.43294 23.0675 7.87574C22.8379 7.31854 22.5007 6.81212 22.0751 6.38548C21.6496 5.95885 21.144 5.6204 20.5873 5.38952C20.0307 5.15865 19.434 5.03989 18.8314 5.04006M11.6751 14.3563C13.0523 14.353 14.3719 13.8035 15.3444 12.8284C16.317 11.8533 16.8629 10.5322 16.8626 9.15506C16.8626 7.77892 16.3159 6.45914 15.3429 5.48606C14.3698 4.51298 13.05 3.96631 11.6739 3.96631C10.2977 3.96631 8.97794 4.51298 8.00486 5.48606C7.03178 6.45914 6.48511 7.77892 6.48511 9.15506C6.48511 10.5322 7.03142 11.8532 8.00417 12.828C8.97693 13.8029 10.2967 14.3521 11.6739 14.3551M17.5314 26.0338C17.9717 26.0332 18.4032 25.9107 18.7782 25.68C19.1531 25.4492 19.4569 25.1191 19.6558 24.7263C19.8548 24.3335 19.9411 23.8933 19.9052 23.4545C19.8693 23.0157 19.7127 22.5953 19.4526 22.2401C18.5418 21.0304 17.3689 20.0426 16.022 19.3507C14.675 18.6588 13.1889 18.2808 11.6751 18.2451C10.1612 18.281 8.67503 18.6592 7.32807 19.3513C5.98112 20.0434 4.80832 21.0314 3.89761 22.2413C3.63843 22.5966 3.48248 23.0166 3.44699 23.455C3.4115 23.8934 3.49785 24.333 3.69649 24.7254C3.89514 25.1178 4.19836 25.4476 4.57267 25.6785C4.94698 25.9094 5.37781 26.0324 5.81761 26.0338H17.5314Z" stroke="#8E8E8E" stroke-width="1.875" stroke-linecap="round" stroke-linejoin="round"/>
</svg>
