<svg width="30" height="30" viewBox="0 0 30 30" fill="none" xmlns="http://www.w3.org/2000/svg">
<g clip-path="url(#clip0_324_715)">
<path d="M20.9375 10.625C21.3519 10.625 21.7493 10.4604 22.0424 10.1674C22.3354 9.87433 22.5 9.4769 22.5 9.0625C22.5 8.6481 22.3354 8.25067 22.0424 7.95765C21.7493 7.66462 21.3519 7.5 20.9375 7.5C20.5231 7.5 20.1257 7.66462 19.8326 7.95765C19.5396 8.25067 19.375 8.6481 19.375 9.0625C19.375 9.4769 19.5396 9.87433 19.8326 10.1674C20.1257 10.4604 20.5231 10.625 20.9375 10.625Z" fill="#8E8E8E"/>
<path d="M19.6875 7.34779e-07C21.177 0.00115401 22.6486 0.324973 24.0011 0.949181C25.3535 1.57339 26.5547 2.48317 27.5219 3.61593C28.4892 4.74869 29.1996 6.07754 29.6042 7.51106C30.0089 8.94459 30.0981 10.4488 29.8659 11.9201C29.6337 13.3914 29.0856 14.795 28.2591 16.0342C27.4327 17.2735 26.3476 18.3189 25.0785 19.0988C23.8094 19.8786 22.3864 20.3743 20.9075 20.5516C19.4286 20.729 17.9287 20.5839 16.5112 20.1262L14.4662 22.1712C14.2635 22.3747 14.0225 22.5362 13.7571 22.6462C13.4918 22.7563 13.2073 22.8128 12.92 22.8125H11.5625C11.4796 22.8125 11.4001 22.8454 11.3415 22.904C11.2829 22.9626 11.25 23.0421 11.25 23.125V24.935C11.25 25.2251 11.135 25.5034 10.93 25.7087L10.6625 25.975C10.5733 26.0643 10.467 26.1348 10.3499 26.182C10.2329 26.2293 10.1075 26.2524 9.98125 26.25H6.5625C6.47962 26.25 6.40013 26.2829 6.34153 26.3415C6.28292 26.4001 6.25 26.4796 6.25 26.5625V27.8125C6.25 28.3927 6.01953 28.9491 5.6093 29.3593C5.19906 29.7695 4.64266 30 4.0625 30H2.1875C1.60734 30 1.05094 29.7695 0.640704 29.3593C0.230468 28.9491 0 28.3927 0 27.8125L0 24.2675C0 23.6875 0.23125 23.1325 0.64125 22.7225L9.87375 13.4875C9.37268 11.9399 9.24485 10.2958 9.50071 8.68939C9.75657 7.08298 10.3888 5.5599 11.3459 4.24458C12.3029 2.92926 13.5576 1.85903 15.0074 1.12133C16.4571 0.383628 18.0608 -0.000613298 19.6875 7.34779e-07ZM11.25 10.3125C11.2487 11.3655 11.445 12.4094 11.8288 13.39C11.8953 13.5598 11.9109 13.7453 11.8736 13.9238C11.8363 14.1023 11.7477 14.2661 11.6188 14.395L1.96625 24.0462C1.93725 24.0753 1.91426 24.1098 1.89861 24.1478C1.88295 24.1858 1.87493 24.2264 1.875 24.2675V27.8125C1.875 27.985 2.015 28.125 2.1875 28.125H4.0625C4.14538 28.125 4.22487 28.0921 4.28347 28.0335C4.34208 27.9749 4.375 27.8954 4.375 27.8125V26.5625C4.375 25.355 5.355 24.375 6.5625 24.375H9.375V23.125C9.375 21.9175 10.355 20.9375 11.5625 20.9375H12.92C12.9611 20.9376 13.0017 20.9296 13.0397 20.9139C13.0777 20.8982 13.1122 20.8753 13.1412 20.8463L15.605 18.3813C15.7339 18.2523 15.8977 18.1637 16.0762 18.1264C16.2547 18.0891 16.4402 18.1047 16.61 18.1713C18.2888 18.8289 20.1342 18.9314 21.8756 18.4639C23.617 17.9963 25.1627 16.9832 26.2864 15.573C27.41 14.1629 28.0523 12.4299 28.1192 10.6281C28.1861 8.82624 27.674 7.05038 26.6581 5.5608C25.6421 4.07122 24.1757 2.94626 22.4738 2.35085C20.7719 1.75543 18.924 1.72086 17.201 2.25222C15.478 2.78357 13.9706 3.85289 12.8996 5.30343C11.8287 6.75398 11.2505 8.50944 11.25 10.3125Z" fill="#8E8E8E"/>
</g>
<defs>
<clipPath id="clip0_324_715">
<rect width="30" height="30" fill="white"/>
</clipPath>
</defs>
</svg>
