<svg width="30" height="30" viewBox="0 0 30 30" fill="none" xmlns="http://www.w3.org/2000/svg">
<path d="M14.9287 1.5625C12.0425 1.5625 9.78125 1.5625 8.01625 1.8C6.21125 2.0425 4.78625 2.55 3.6675 3.6675C2.54875 4.78625 2.0425 6.21125 1.8 8.0175C1.5625 9.78125 1.5625 12.0425 1.5625 14.9287V15.0713C1.5625 17.9575 1.5625 20.2187 1.8 21.9837C2.0425 23.7887 2.55 25.2138 3.6675 26.3325C4.78625 27.4512 6.21125 27.9575 8.0175 28.2C9.78125 28.4375 12.0425 28.4375 14.9287 28.4375H15.0713C17.9575 28.4375 20.2187 28.4375 21.9837 28.2C23.7887 27.9575 25.2138 27.45 26.3325 26.3325C27.4512 25.2138 27.9575 23.7888 28.2 21.9825C28.4375 20.2188 28.4375 17.9575 28.4375 15.0713V13.125C28.4375 12.8764 28.3387 12.6379 28.1629 12.4621C27.9871 12.2863 27.7486 12.1875 27.5 12.1875C27.2514 12.1875 27.0129 12.2863 26.8371 12.4621C26.6613 12.6379 26.5625 12.8764 26.5625 13.125V15C26.5625 17.9725 26.56 20.1075 26.3425 21.7325C26.1275 23.3312 25.7175 24.295 25.0062 25.0075C24.2937 25.7188 23.3312 26.1275 21.7325 26.3425C20.1075 26.56 17.9725 26.5625 15 26.5625C12.0275 26.5625 9.8925 26.56 8.2675 26.3425C6.66875 26.1275 5.705 25.7175 4.9925 25.0062C4.28125 24.2937 3.8725 23.3312 3.6575 21.7325C3.44 20.1075 3.4375 17.9725 3.4375 15C3.4375 12.0275 3.44 9.8925 3.6575 8.2675C3.8725 6.66875 4.2825 5.705 4.99375 4.9925C5.70625 4.28125 6.66875 3.8725 8.2675 3.6575C9.8925 3.44 12.0275 3.4375 15 3.4375H16.875C17.1236 3.4375 17.3621 3.33873 17.5379 3.16291C17.7137 2.9871 17.8125 2.74864 17.8125 2.5C17.8125 2.25136 17.7137 2.0129 17.5379 1.83709C17.3621 1.66127 17.1236 1.5625 16.875 1.5625H14.9287Z" fill="#8E8E8E"/>
<path fill-rule="evenodd" clip-rule="evenodd" d="M23.75 1.5625C22.5068 1.5625 21.3145 2.05636 20.4354 2.93544C19.5564 3.81451 19.0625 5.0068 19.0625 6.25C19.0625 7.4932 19.5564 8.68549 20.4354 9.56456C21.3145 10.4436 22.5068 10.9375 23.75 10.9375C24.9932 10.9375 26.1855 10.4436 27.0646 9.56456C27.9436 8.68549 28.4375 7.4932 28.4375 6.25C28.4375 5.0068 27.9436 3.81451 27.0646 2.93544C26.1855 2.05636 24.9932 1.5625 23.75 1.5625ZM20.9375 6.25C20.9375 5.50408 21.2338 4.78871 21.7613 4.26126C22.2887 3.73382 23.0041 3.4375 23.75 3.4375C24.4959 3.4375 25.2113 3.73382 25.7387 4.26126C26.2662 4.78871 26.5625 5.50408 26.5625 6.25C26.5625 6.99592 26.2662 7.71129 25.7387 8.23874C25.2113 8.76618 24.4959 9.0625 23.75 9.0625C23.0041 9.0625 22.2887 8.76618 21.7613 8.23874C21.2338 7.71129 20.9375 6.99592 20.9375 6.25Z" fill="#8E8E8E"/>
<path d="M7.8125 17.5C7.8125 17.2514 7.91127 17.0129 8.08709 16.8371C8.2629 16.6613 8.50136 16.5625 8.75 16.5625H20C20.2486 16.5625 20.4871 16.6613 20.6629 16.8371C20.8387 17.0129 20.9375 17.2514 20.9375 17.5C20.9375 17.7486 20.8387 17.9871 20.6629 18.1629C20.4871 18.3387 20.2486 18.4375 20 18.4375H8.75C8.50136 18.4375 8.2629 18.3387 8.08709 18.1629C7.91127 17.9871 7.8125 17.7486 7.8125 17.5ZM8.75 20.9375C8.50136 20.9375 8.2629 21.0363 8.08709 21.2121C7.91127 21.3879 7.8125 21.6264 7.8125 21.875C7.8125 22.1236 7.91127 22.3621 8.08709 22.5379C8.2629 22.7137 8.50136 22.8125 8.75 22.8125H16.25C16.4986 22.8125 16.7371 22.7137 16.9129 22.5379C17.0887 22.3621 17.1875 22.1236 17.1875 21.875C17.1875 21.6264 17.0887 21.3879 16.9129 21.2121C16.7371 21.0363 16.4986 20.9375 16.25 20.9375H8.75Z" fill="#8E8E8E"/>
</svg>
