<svg width="40" height="40" viewBox="0 0 40 40" fill="none" xmlns="http://www.w3.org/2000/svg">
<path fill-rule="evenodd" clip-rule="evenodd" d="M12.075 3.33337H27.925C29.8567 3.33337 30.8217 3.33337 31.6017 3.60504C32.3371 3.86569 33.0025 4.2924 33.5462 4.85201C34.09 5.41163 34.4973 6.08907 34.7367 6.83171C35 7.63504 35 8.62837 35 10.6167V33.9567C35 35.3867 33.3583 36.1467 32.32 35.1967C32.0287 34.9275 31.6466 34.778 31.25 34.778C30.8534 34.778 30.4713 34.9275 30.18 35.1967L29.375 35.9334C28.8647 36.4053 28.1951 36.6674 27.5 36.6674C26.8049 36.6674 26.1353 36.4053 25.625 35.9334C25.1147 35.4614 24.4451 35.1993 23.75 35.1993C23.0549 35.1993 22.3853 35.4614 21.875 35.9334C21.3647 36.4053 20.6951 36.6674 20 36.6674C19.3049 36.6674 18.6353 36.4053 18.125 35.9334C17.6147 35.4614 16.9451 35.1993 16.25 35.1993C15.5549 35.1993 14.8853 35.4614 14.375 35.9334C13.8647 36.4053 13.1951 36.6674 12.5 36.6674C11.8049 36.6674 11.1353 36.4053 10.625 35.9334L9.82 35.1967C9.52869 34.9275 9.14663 34.778 8.75 34.778C8.35337 34.778 7.97131 34.9275 7.68 35.1967C6.64167 36.1467 5 35.3867 5 33.9567V10.6167C5 8.62837 5 7.63337 5.26333 6.83337C5.76333 5.31171 6.92167 4.11837 8.39833 3.60504C9.17833 3.33337 10.1433 3.33337 12.075 3.33337ZM11.6667 11.25C11.3351 11.25 11.0172 11.3817 10.7828 11.6162C10.5484 11.8506 10.4167 12.1685 10.4167 12.5C10.4167 12.8316 10.5484 13.1495 10.7828 13.3839C11.0172 13.6183 11.3351 13.75 11.6667 13.75H12.5C12.8315 13.75 13.1495 13.6183 13.3839 13.3839C13.6183 13.1495 13.75 12.8316 13.75 12.5C13.75 12.1685 13.6183 11.8506 13.3839 11.6162C13.1495 11.3817 12.8315 11.25 12.5 11.25H11.6667ZM17.5 11.25C17.1685 11.25 16.8505 11.3817 16.6161 11.6162C16.3817 11.8506 16.25 12.1685 16.25 12.5C16.25 12.8316 16.3817 13.1495 16.6161 13.3839C16.8505 13.6183 17.1685 13.75 17.5 13.75H28.3333C28.6649 13.75 28.9828 13.6183 29.2172 13.3839C29.4516 13.1495 29.5833 12.8316 29.5833 12.5C29.5833 12.1685 29.4516 11.8506 29.2172 11.6162C28.9828 11.3817 28.6649 11.25 28.3333 11.25H17.5ZM11.6667 17.0834C11.3351 17.0834 11.0172 17.2151 10.7828 17.4495C10.5484 17.6839 10.4167 18.0019 10.4167 18.3334C10.4167 18.6649 10.5484 18.9828 10.7828 19.2173C11.0172 19.4517 11.3351 19.5834 11.6667 19.5834H12.5C12.8315 19.5834 13.1495 19.4517 13.3839 19.2173C13.6183 18.9828 13.75 18.6649 13.75 18.3334C13.75 18.0019 13.6183 17.6839 13.3839 17.4495C13.1495 17.2151 12.8315 17.0834 12.5 17.0834H11.6667ZM17.5 17.0834C17.1685 17.0834 16.8505 17.2151 16.6161 17.4495C16.3817 17.6839 16.25 18.0019 16.25 18.3334C16.25 18.6649 16.3817 18.9828 16.6161 19.2173C16.8505 19.4517 17.1685 19.5834 17.5 19.5834H28.3333C28.6649 19.5834 28.9828 19.4517 29.2172 19.2173C29.4516 18.9828 29.5833 18.6649 29.5833 18.3334C29.5833 18.0019 29.4516 17.6839 29.2172 17.4495C28.9828 17.2151 28.6649 17.0834 28.3333 17.0834H17.5ZM11.6667 22.9167C11.3351 22.9167 11.0172 23.0484 10.7828 23.2828C10.5484 23.5172 10.4167 23.8352 10.4167 24.1667C10.4167 24.4982 10.5484 24.8162 10.7828 25.0506C11.0172 25.285 11.3351 25.4167 11.6667 25.4167H12.5C12.8315 25.4167 13.1495 25.285 13.3839 25.0506C13.6183 24.8162 13.75 24.4982 13.75 24.1667C13.75 23.8352 13.6183 23.5172 13.3839 23.2828C13.1495 23.0484 12.8315 22.9167 12.5 22.9167H11.6667ZM17.5 22.9167C17.1685 22.9167 16.8505 23.0484 16.6161 23.2828C16.3817 23.5172 16.25 23.8352 16.25 24.1667C16.25 24.4982 16.3817 24.8162 16.6161 25.0506C16.8505 25.285 17.1685 25.4167 17.5 25.4167H28.3333C28.6649 25.4167 28.9828 25.285 29.2172 25.0506C29.4516 24.8162 29.5833 24.4982 29.5833 24.1667C29.5833 23.8352 29.4516 23.5172 29.2172 23.2828C28.9828 23.0484 28.6649 22.9167 28.3333 22.9167H17.5Z" fill="#FF3D00"/>
</svg>
