<svg width="30" height="30" viewBox="0 0 30 30" fill="none" xmlns="http://www.w3.org/2000/svg">
<path d="M20.9437 2.5H9.05625C7.6075 2.5 6.88375 2.5 6.29875 2.70375C5.74722 2.89932 5.2482 3.21938 4.84042 3.63908C4.43265 4.05878 4.1271 4.56682 3.9475 5.12375C3.75 5.72625 3.75 6.47125 3.75 7.9625V25.4675C3.75 26.54 4.98125 27.11 5.76 26.3975C5.97848 26.1956 6.26503 26.0835 6.5625 26.0835C6.85997 26.0835 7.14652 26.1956 7.365 26.3975L7.96875 26.95C8.35151 27.304 8.85367 27.5005 9.375 27.5005C9.89633 27.5005 10.3985 27.304 10.7812 26.95C11.164 26.596 11.6662 26.3995 12.1875 26.3995C12.7088 26.3995 13.211 26.596 13.5938 26.95C13.9765 27.304 14.4787 27.5005 15 27.5005C15.5213 27.5005 16.0235 27.304 16.4062 26.95C16.789 26.596 17.2912 26.3995 17.8125 26.3995C18.3338 26.3995 18.836 26.596 19.2188 26.95C19.6015 27.304 20.1037 27.5005 20.625 27.5005C21.1463 27.5005 21.6485 27.304 22.0312 26.95L22.635 26.3975C22.8535 26.1956 23.14 26.0835 23.4375 26.0835C23.735 26.0835 24.0215 26.1956 24.24 26.3975C25.0188 27.11 26.25 26.54 26.25 25.4675V7.9625C26.25 6.47125 26.25 5.725 26.0525 5.125C25.8732 4.56779 25.5677 4.05946 25.1599 3.63952C24.7521 3.21958 24.253 2.89936 23.7013 2.70375C23.1163 2.5 22.3925 2.5 20.9437 2.5Z" stroke="#8E8E8E" stroke-width="1.875"/>
<path d="M13.125 13.75H21.25M8.75 13.75H9.375M8.75 9.375H9.375M8.75 18.125H9.375M13.125 9.375H21.25M13.125 18.125H21.25" stroke="#8E8E8E" stroke-width="1.875" stroke-linecap="round"/>
</svg>
