<svg width="30" height="30" viewBox="0 0 30 30" fill="none" xmlns="http://www.w3.org/2000/svg">
<path d="M4.99992 9.99996L4.11617 10.8837L3.23242 9.99996L4.11617 9.11621L4.99992 9.99996ZM11.2499 25C10.9184 25 10.6005 24.8683 10.366 24.6338C10.1316 24.3994 9.99992 24.0815 9.99992 23.75C9.99992 23.4184 10.1316 23.1005 10.366 22.8661C10.6005 22.6317 10.9184 22.5 11.2499 22.5V25ZM10.3662 17.1337L4.11617 10.8837L5.88367 9.11621L12.1337 15.3662L10.3662 17.1337ZM4.11617 9.11621L10.3662 2.86621L12.1337 4.63371L5.88367 10.8837L4.11617 9.11621ZM4.99992 8.74996H18.1249V11.25H4.99992V8.74996ZM18.1249 25H11.2499V22.5H18.1249V25ZM26.2499 16.875C26.2499 19.0298 25.3939 21.0965 23.8702 22.6202C22.3464 24.1439 20.2798 25 18.1249 25V22.5C18.8636 22.5 19.5951 22.3545 20.2775 22.0718C20.96 21.7891 21.5801 21.3748 22.1024 20.8524C22.6247 20.3301 23.0391 19.71 23.3217 19.0276C23.6044 18.3451 23.7499 17.6136 23.7499 16.875H26.2499ZM18.1249 8.74996C20.2798 8.74996 22.3464 9.60598 23.8702 11.1297C25.3939 12.6535 26.2499 14.7201 26.2499 16.875H23.7499C23.7499 16.1363 23.6044 15.4048 23.3217 14.7224C23.0391 14.0399 22.6247 13.4198 22.1024 12.8975C21.5801 12.3752 20.96 11.9608 20.2775 11.6781C19.5951 11.3955 18.8636 11.25 18.1249 11.25V8.74996Z" fill="#8E8E8E"/>
</svg>
