<svg width="30" height="30" viewBox="0 0 30 30" fill="none" xmlns="http://www.w3.org/2000/svg">
<path d="M25.3127 15.7125V14.2781L27.1127 12.7031C27.4445 12.4106 27.6622 12.0103 27.7274 11.5728C27.7926 11.1354 27.701 10.6889 27.4689 10.3125L25.2564 6.56245C25.092 6.2777 24.8556 6.04119 24.571 5.87664C24.2863 5.71209 23.9634 5.62529 23.6345 5.62495C23.4308 5.62339 23.2281 5.65506 23.0345 5.7187L20.7564 6.48745C20.3636 6.22523 19.9533 5.99031 19.5283 5.78433L19.0502 3.42183C18.9644 2.99021 18.7296 2.60249 18.3869 2.32655C18.0441 2.05061 17.6151 1.90402 17.1752 1.91245H12.7877C12.3477 1.90402 11.9188 2.05061 11.576 2.32655C11.2332 2.60249 10.9984 2.99021 10.9127 3.42183L10.4346 5.78433C10.007 5.99119 9.59361 6.22608 9.19705 6.48745L6.9658 5.6812C6.77014 5.63023 6.56753 5.61123 6.3658 5.62495C6.037 5.62529 5.71406 5.71209 5.42939 5.87664C5.14472 6.04119 4.90833 6.2777 4.74393 6.56245L2.53143 10.3125C2.3126 10.6884 2.23129 11.1287 2.30141 11.558C2.37153 11.9873 2.58873 12.3788 2.9158 12.6656L4.68768 14.2875V15.7218L2.9158 17.2968C2.57949 17.5856 2.35635 17.9841 2.28599 18.4218C2.21562 18.8594 2.30258 19.3078 2.53143 19.6875L4.74393 23.4375C4.90833 23.7222 5.14472 23.9587 5.42939 24.1233C5.71406 24.2878 6.037 24.3746 6.3658 24.375C6.56957 24.3765 6.77222 24.3448 6.9658 24.2812L9.24393 23.5125C9.63672 23.7747 10.0471 24.0096 10.4721 24.2156L10.9502 26.5781C11.0359 27.0097 11.2707 27.3974 11.6135 27.6734C11.9563 27.9493 12.3852 28.0959 12.8252 28.0875H17.2502C17.6901 28.0959 18.1191 27.9493 18.4619 27.6734C18.8046 27.3974 19.0394 27.0097 19.1252 26.5781L19.6033 24.2156C20.0308 24.0087 20.4442 23.7738 20.8408 23.5125L23.1095 24.2812C23.3031 24.3448 23.5058 24.3765 23.7096 24.375C24.0384 24.3746 24.3613 24.2878 24.646 24.1233C24.9306 23.9587 25.167 23.7222 25.3314 23.4375L27.4689 19.6875C27.6877 19.3115 27.7691 18.8712 27.6989 18.4419C27.6288 18.0126 27.4116 17.6211 27.0845 17.3343L25.3127 15.7125ZM23.6345 22.5L20.4189 21.4125C19.6657 22.0494 18.8055 22.5477 17.8783 22.8843L17.2127 26.25H12.7877L12.1221 22.9218C11.2021 22.5758 10.3466 22.0783 9.5908 21.45L6.3658 22.5L4.1533 18.75L6.7033 16.5C6.52995 15.5295 6.52995 14.536 6.7033 13.5656L4.1533 11.25L6.3658 7.49995L9.58143 8.58745C10.3346 7.95051 11.1948 7.45217 12.1221 7.11558L12.7877 3.74995H17.2127L17.8783 7.07808C18.7982 7.42412 19.6538 7.92161 20.4096 8.54995L23.6345 7.49995L25.847 11.25L23.2971 13.5C23.4704 14.4704 23.4704 15.4639 23.2971 16.4343L25.847 18.75L23.6345 22.5Z" fill="#8E8E8E"/>
<path d="M15 20.625C13.8875 20.625 12.7999 20.2951 11.8749 19.677C10.9499 19.0589 10.2289 18.1804 9.80318 17.1526C9.37744 16.1248 9.26604 14.9938 9.48309 13.9026C9.70013 12.8115 10.2359 11.8092 11.0225 11.0225C11.8092 10.2359 12.8115 9.70013 13.9026 9.48309C14.9938 9.26604 16.1248 9.37744 17.1526 9.80318C18.1804 10.2289 19.0589 10.9499 19.677 11.8749C20.2951 12.7999 20.625 13.8875 20.625 15C20.6325 15.7408 20.4922 16.4756 20.2121 17.1615C19.9321 17.8473 19.5181 18.4704 18.9942 18.9942C18.4704 19.5181 17.8473 19.9321 17.1615 20.2121C16.4756 20.4922 15.7408 20.6325 15 20.625ZM15 11.25C14.5044 11.2385 14.0116 11.3276 13.5514 11.5119C13.0912 11.6963 12.6732 11.9721 12.3226 12.3226C11.9721 12.6732 11.6963 13.0912 11.5119 13.5514C11.3276 14.0116 11.2385 14.5044 11.25 15C11.2385 15.4956 11.3276 15.9884 11.5119 16.4486C11.6963 16.9088 11.9721 17.3268 12.3226 17.6774C12.6732 18.0279 13.0912 18.3037 13.5514 18.4881C14.0116 18.6724 14.5044 18.7615 15 18.75C15.4956 18.7615 15.9884 18.6724 16.4486 18.4881C16.9088 18.3037 17.3268 18.0279 17.6774 17.6774C18.0279 17.3268 18.3037 16.9088 18.4881 16.4486C18.6724 15.9884 18.7615 15.4956 18.75 15C18.7615 14.5044 18.6724 14.0116 18.4881 13.5514C18.3037 13.0912 18.0279 12.6732 17.6774 12.3226C17.3268 11.9721 16.9088 11.6963 16.4486 11.5119C15.9884 11.3276 15.4956 11.2385 15 11.25Z" fill="#8E8E8E"/>
</svg>
