<svg width="30" height="28" viewBox="0 0 30 28" fill="none" xmlns="http://www.w3.org/2000/svg">
<path d="M1.66667 19.8333C1.19444 19.8333 0.798889 19.6733 0.48 19.3533C0.161111 19.0333 0.00111111 18.6377 0 18.1666V17.3333C0 16.8611 0.16 16.4655 0.48 16.1466C0.8 15.8277 1.19556 15.6677 1.66667 15.6666H28.3333C28.8056 15.6666 29.2017 15.8266 29.5217 16.1466C29.8417 16.4666 30.0011 16.8622 30 17.3333V18.1666C30 18.6388 29.84 19.035 29.52 19.355C29.2 19.675 28.8044 19.8344 28.3333 19.8333H1.66667ZM1.66667 12.3333C1.19444 12.3333 0.798889 12.1733 0.48 11.8533C0.161111 11.5333 0.00111111 11.1377 0 10.6666V9.83329C0 9.36107 0.16 8.96552 0.48 8.64663C0.8 8.32774 1.19556 8.16774 1.66667 8.16663H28.3333C28.8056 8.16663 29.2017 8.32663 29.5217 8.64663C29.8417 8.96663 30.0011 9.36218 30 9.83329V10.6666C30 11.1388 29.84 11.535 29.52 11.855C29.2 12.175 28.8044 12.3344 28.3333 12.3333H1.66667ZM1.66667 4.83329C1.19444 4.83329 0.798889 4.67329 0.48 4.35329C0.161111 4.03329 0.00111111 3.63774 0 3.16663V2.33329C0 1.86107 0.16 1.46552 0.48 1.14663C0.8 0.827737 1.19556 0.667737 1.66667 0.666626H28.3333C28.8056 0.666626 29.2017 0.826626 29.5217 1.14663C29.8417 1.46663 30.0011 1.86218 30 2.33329V3.16663C30 3.63885 29.84 4.03496 29.52 4.35496C29.2 4.67496 28.8044 4.8344 28.3333 4.83329H1.66667ZM1.66667 27.3333C1.19444 27.3333 0.798889 27.1733 0.48 26.8533C0.161111 26.5333 0.00111111 26.1377 0 25.6666V24.8333C0 24.3611 0.16 23.9655 0.48 23.6466C0.8 23.3277 1.19556 23.1677 1.66667 23.1666H28.3333C28.8056 23.1666 29.2017 23.3266 29.5217 23.6466C29.8417 23.9666 30.0011 24.3622 30 24.8333V25.6666C30 26.1388 29.84 26.535 29.52 26.855C29.2 27.175 28.8044 27.3344 28.3333 27.3333H1.66667Z" fill="#F23E14"/>
</svg>
