<svg width="14" height="14" viewBox="0 0 14 14" fill="none" xmlns="http://www.w3.org/2000/svg">
<path d="M9.3335 1.75H0.583496V9.33333H9.3335V1.75Z" stroke="#FF5353" stroke-width="0.8" stroke-linecap="round" stroke-linejoin="round"/>
<path d="M9.3335 4.66663H11.6668L13.4168 6.41663V9.33329H9.3335V4.66663Z" stroke="#FF5353" stroke-width="0.8" stroke-linecap="round" stroke-linejoin="round"/>
<path d="M3.20833 12.25C4.01375 12.25 4.66667 11.5971 4.66667 10.7917C4.66667 9.98629 4.01375 9.33337 3.20833 9.33337C2.40292 9.33337 1.75 9.98629 1.75 10.7917C1.75 11.5971 2.40292 12.25 3.20833 12.25Z" stroke="#FF5353" stroke-width="0.8" stroke-linecap="round" stroke-linejoin="round"/>
<path d="M10.7918 12.25C11.5972 12.25 12.2502 11.5971 12.2502 10.7917C12.2502 9.98629 11.5972 9.33337 10.7918 9.33337C9.98641 9.33337 9.3335 9.98629 9.3335 10.7917C9.3335 11.5971 9.98641 12.25 10.7918 12.25Z" stroke="#FF5353" stroke-width="0.8" stroke-linecap="round" stroke-linejoin="round"/>
</svg>