<svg width="47" height="49" viewBox="0 0 47 49" fill="none" xmlns="http://www.w3.org/2000/svg">
<path fill-rule="evenodd" clip-rule="evenodd" d="M39.9139 39.765C39.5946 39.7221 39.2893 39.6782 38.9936 39.631C32.5028 38.5992 31.8503 36.2914 31.0039 34.5225C30.3161 34.2257 29.9786 33.9867 29.6261 32.7621C29.4739 32.2392 29.2103 29.9185 29.3218 29.0142C29.8553 28.5139 30.2603 27.2432 30.4361 26.6528C30.9096 25.0735 31.0243 24.69 31.4753 22.5857C31.5396 22.2857 31.71 22.1635 31.8482 22.1121C32.2682 21.96 32.3646 21.6225 32.5018 21.3728C32.8264 20.8007 32.5478 20.5435 33.0546 19.1475C33.7018 17.5596 33.8025 15.9246 33.3118 15.4553C32.9786 15.1585 32.7761 15.3803 32.6121 15.4403C32.5028 15.4832 32.5875 15.21 32.6861 14.821C33.075 13.2214 33.0771 11.866 33.1821 10.2267C33.2668 8.89924 33.1778 7.68853 33.0118 6.93745C32.8553 6.7821 32.4514 5.04103 31.9886 4.02317C31.1978 2.2746 28.8278 2.00353 28.0157 1.65317C26.0828 0.84424 23.6657 -0.251832 20.8007 0.985668C19.5257 1.53531 17.8275 1.58888 15.9793 3.66853C15.5421 4.1571 14.7621 3.7371 13.8911 5.63996C13.0071 7.50424 12.96 8.7321 13.1614 10.065L13.1003 10.0682C13.1003 10.0682 13.1228 13.2578 13.5139 14.8575C13.6103 15.2475 13.6928 15.5185 13.5857 15.4778C13.4228 15.4178 13.1989 15.225 12.8657 15.5228C12.3728 15.9921 12.6343 17.5596 13.2814 19.1475C13.7914 20.5435 13.4518 20.9592 13.9939 21.6942C14.1868 21.9557 14.3668 22.0939 14.5746 22.1817C14.7139 22.2375 14.91 22.2546 15.0011 22.546C15.5978 24.7103 15.7082 25.3746 16.3286 26.6625C16.5964 27.2185 16.8975 28.6103 17.4525 29.1503C17.5436 29.9121 17.4493 32.1075 17.3293 32.7621C17.1364 33.7917 16.7753 34.0896 15.8057 34.5225C15.2786 36.2367 13.8803 37.7882 8.03249 39.5817C7.8332 39.6417 7.62856 39.705 7.4207 39.765C7.30928 39.8025 5.32927 41.5103 1.47963 44.8896C1.15219 45.1771 0.920153 45.5575 0.814472 45.9802C0.708791 46.4029 0.734485 46.8478 0.888128 47.2556C1.04177 47.6633 1.31606 48.0145 1.67443 48.2624C2.03279 48.5102 2.45819 48.6429 2.89392 48.6428H44.58C45.0195 48.643 45.4485 48.5081 45.8088 48.2562C46.169 48.0044 46.4431 47.6478 46.5939 47.235C46.7446 46.8221 46.7648 46.3728 46.6516 45.9481C46.5384 45.5234 46.2973 45.1438 45.9611 44.8607L39.9139 39.765Z" fill="#15838C"/>
</svg>
